<svg version="1.2" xmlns="http://www.w3.org/2000/svg" viewBox="0 0 750 510" width="750" height="510"><defs><linearGradient id="P" gradientUnits="userSpaceOnUse"/><linearGradient id="g1" x2="1" href="#P" gradientTransform="matrix(-288.109,-499.019,842.612,-486.483,518.55,504.002)"><stop stop-color="#04609f"/><stop offset="0" stop-color="#04609f"/><stop offset=".22" stop-color="#0588bd"/><stop offset=".68" stop-color="#05b0dc"/><stop offset="1" stop-color="#05b0dc"/></linearGradient></defs><style>tspan{white-space:pre}.a{fill:url(#g1)}</style><path class="a" d="m676.7 5.7c14.9-0.5 32.2-1 47.7-0.5 9.1 0.7 18.9 0.7 21.4 4 1 1.8-2.2 4-7 7.1-45.2 23.4-71.9 74.2-91.7 123.7-33.3 69.7-61.1 260.3-140.5 261.8-104.7-10-113.1-247.5-199.3-319.6-17.3-17.6-41-29.2-64.5-26.7-14 1-27.9 6.5-40.2 15.1-2.7 1.5-5.4 4-8.2 4.3-0.7 0-0.9-0.5-0.9-1.3 5.2-17.9 25.1-37 41.7-44.3 22.6-10.8 49.1-12 72.1-2.5 48.1 21.7 75 75.2 96.7 125.3 51.3 123 92.1 303.3 158.9 107.4 21.5-58.1 33.3-122.5 66.6-175.3 3.2-6.3 16.5-23.9 12.6-29.7-1.6-1.8-6.9 0-9.4 1.8-67.7 47-86.9 135.3-115.4 213.2-3.4 8.3-8.9 27.7-18.9 24.2-11.4-6-18.2-34.5-14.8-50.1 22.8-105.4 83.4-236.1 192.9-237.9h0.5zm-484 124.7c158.8-159.4 159.2 403.2 344.6 306.7 5-2.3 19.6-13.4 18.7-8.8-0.9 7.2-18.9 31.6-29.6 38.4-43.6 34.2-101.3 11.9-134.6-28.4-11.8-13.8-20.7-29.9-29.6-45.5-27.2-37.2-83-254.6-126.1-238.2-48.1 20.1-85.5 233.9-132.7 290.5-1.4 2.3-3 4.3-1.9 6.5 0.9 1.3 4.1 1.3 8.5-0.7 80.9-42.3 80.9-149.7 122.4-227.6 7.1-14.4 16.4-20.4 25.6-3.6 6.4 11.9 8.9 24.7 5 37.8-2.1 8.3-5.5 16.3-8.5 24.4-11.1 32.2-16.1 55.6-29.1 85.5-34.5 97.8-116.3 147.6-210.8 134.5-5.4-0.7-9.8-1.7-11.1-3.5-1.6-2 0.4-4.8 4.8-8.3 112.8-79.7 104.2-249 183.8-359.7v-0.5z"/></svg>