<svg version="1.2" xmlns="http://www.w3.org/2000/svg" viewBox="0 0 2919 520" width="2919" height="520"><defs><linearGradient id="P" gradientUnits="userSpaceOnUse"/><linearGradient id="g1" x2="1" href="#P" gradientTransform="matrix(-288.109,-499.019,842.612,-486.483,543.55,509.002)"><stop stop-color="#04609f"/><stop offset="0" stop-color="#04609f"/><stop offset=".22" stop-color="#0588bd"/><stop offset=".68" stop-color="#05b0dc"/><stop offset="1" stop-color="#05b0dc"/></linearGradient></defs><style>tspan{white-space:pre}.a{fill:#212529}.b{fill:url(#g1)}</style><path fill-rule="evenodd" class="a" d="m904.8 117.2h73.1l96.7 172.1v-172.1h67.9v291.6h-72.7l-97.2-172.9v172.9h-67.8zm337.5 180q0 29.6 9.1 41.3 9.2 11.7 32.5 11.7 22.5 0 31.5-11.9 9-11.9 9-41.1 0-28.3-9.6-40.4-9.5-12.1-30.9-12.1-22.5 0-32.1 12.5-9.5 12.5-9.5 40zm-67.2 0q0-55.8 28.2-85.8 28.1-30 80.6-30 52.1 0 80 30 28 30 28 85.8 0 55.9-28 86.1-27.9 30.2-80 30.2-52.5 0-80.6-30.2-28.2-30.2-28.2-86.1zm250.5-111.2h64.2l1.5 32.1q9.7-17.5 25.3-27.1 15.5-9.6 35.8-9.6 5.2 0 7.3 0.2 2 0.2 3.9 0.6v69.2h-44.2q-7.9 0-13.1 1.5-5.3 1.4-8.3 5.2-3 3.7-4.3 10.2-1.3 6.5-1.3 16v124.6h-66.8zm166.5 0h64.2l1.5 32.1q10.5-17.5 26.8-27.1 16.3-9.6 36.9-9.6 23.3 0 40.5 12.1 17.3 12.1 25.1 32.9 9.8-21.2 27.4-33.1 17.6-11.9 40.5-11.9 15.4 0 28.5 5.7 13.1 5.6 22.5 15.8 9.4 10.2 14.6 24.2 5.3 13.9 5.3 30.6v151.2h-66.8v-129.6q0-33.3-33-33.3-33.7 0-33.7 34.2v128.7h-66.8v-129.6q0-33.3-33-33.3-33.7 0-33.7 34.2v128.7h-66.8zm358.5-68.7h39l67.5 244.6 67.5-244.6h40.2l67.5 245 67.5-245h38.6l-79.9 291.6h-48l-65.6-233.3-66.4 233.3h-47.6zm423 77.1h36v214.6h-36zm-6-62.1q0-13.3 6.5-19.1 6.6-5.9 17.5-5.9 10.8 0 17.2 5.9 6.4 5.8 6.4 19.1 0 12.9-6.4 18.8-6.4 5.8-17.2 5.8-10.9 0-17.5-5.8-6.5-5.9-6.5-18.8zm103.9 62.1h34.8l0.4 35.8q9.8-19.5 27.2-29.7 17.4-10.3 41.1-10.3 16.4 0 30.1 5.9 13.7 5.8 23.3 16.6 9.6 10.9 14.8 26.3 5.3 15.4 5.3 34.2v135.8h-35.7v-125.8q0-27.1-13.3-42.5-13.3-15.5-36.9-15.5-25.5 0-40.3 16.3-14.8 16.2-14.8 45v122.5h-36zm319.1 30.8q-30.4 0-46.1 19.6-15.8 19.6-15.8 56.7 0 38.3 15.8 57.5 15.7 19.1 46.1 19.1 62.2 0 62.2-76.6 0-37.1-15.9-56.7-15.9-19.6-46.3-19.6zm64.1 183.8l-1.1-37.5q-10.5 21.2-28.7 31.4-18.2 10.2-43.7 10.2-42.4 0-65.8-29.3-23.4-29.4-23.4-82.3 0-26.3 6-46.9 5.9-20.6 17.6-35 11.6-14.4 28.1-21.9 16.5-7.5 37.5-7.5 25.1 0 43.1 9.8 18 9.8 28.5 31.1v-124.2h36v302.1z"/><path class="b" d="m701.7 10.7c14.9-0.5 32.2-1 47.7-0.5 9.1 0.7 18.9 0.7 21.4 4 1 1.8-2.2 4-7 7.1-45.2 23.4-71.9 74.2-91.7 123.7-33.3 69.7-61.1 260.3-140.5 261.8-104.7-10-113.1-247.5-199.3-319.6-17.3-17.6-41-29.2-64.5-26.7-14 1-27.9 6.5-40.2 15.1-2.7 1.5-5.4 4-8.2 4.3-0.7 0-0.9-0.5-0.9-1.3 5.2-17.9 25.1-37 41.7-44.3 22.6-10.8 49.1-12 72.1-2.5 48.1 21.7 75 75.2 96.7 125.3 51.3 123 92.1 303.3 158.9 107.4 21.5-58.1 33.3-122.5 66.6-175.3 3.2-6.3 16.5-23.9 12.6-29.7-1.6-1.8-6.9 0-9.4 1.8-67.7 47-86.9 135.3-115.4 213.2-3.4 8.3-8.9 27.7-18.9 24.2-11.4-6-18.2-34.5-14.8-50.1 22.8-105.4 83.4-236.1 192.9-237.9h0.5zm-484 124.7c158.8-159.4 159.2 403.2 344.6 306.7 5-2.3 19.6-13.4 18.7-8.8-0.9 7.2-18.9 31.6-29.6 38.4-43.6 34.2-101.3 11.9-134.6-28.4-11.8-13.8-20.7-29.9-29.6-45.5-27.2-37.2-83-254.6-126.1-238.2-48.1 20.1-85.5 233.9-132.7 290.5-1.4 2.3-3 4.3-1.9 6.5 0.9 1.3 4.1 1.3 8.5-0.7 80.9-42.3 80.9-149.7 122.4-227.6 7.1-14.4 16.4-20.4 25.6-3.6 6.4 11.9 8.9 24.7 5 37.8-2.1 8.3-5.5 16.3-8.5 24.4-11.1 32.2-16.1 55.6-29.1 85.5-34.5 97.8-116.3 147.6-210.8 134.5-5.4-0.7-9.8-1.7-11.1-3.5-1.6-2 0.4-4.8 4.8-8.3 112.8-79.7 104.2-249 183.8-359.7v-0.5z"/></svg>